<?xml version="1.0"?>
<svg xmlns="http://www.w3.org/2000/svg" width="269.553px" height="154.412px">
<path fill="#0067A4" d="M200.294,89.145c-1.415-6.842-4.122-12.499-8.027-17.649c-8.002-10.561-20.964-17.236-38.508-17.236
			c-27.274,0-44.043,18.521-49.009,38.044c-4.46-13.766-16.396-23.053-29.004-26.977c9.49-6.918,14.458-16.814,14.458-28.111
			c0-10.486-4.365-20.031-11.672-26.243C67.812,1.86,53.2,0,35.195,0C21.374,0,16.16,0,0,0v151.975c9.972,0,20.222-0.044,30.214,0
			c8.89,0.041,17.572-0.012,25.668-0.336c25.626-1.027,43.166-13.926,48.78-33.296c1.928,8.612,5.636,15.633,10.478,20.961
			c9.868,10.862,24.175,15.108,38.583,15.108c17.74,0,30.566-5.145,39.328-13.029l-12.541-14.74
			c-6.311,4.758-14.422,7.563-23.531,7.563c-17.865-0.056-25.743-11.36-26.449-22.229h69.763v39.998h26.131V0.759h-26.131V89.145z
			 M26.851,20.532l7.261-0.004c7.012,0,12.55,0.754,16.538,2.302c7.874,3.055,11.617,9.316,11.617,17.137
			c0.009,6.613-2.521,17.005-16.432,19.846c-2.327,0.475-5.679,0.738-10.415,0.738c-6.688,0-8.569,0-8.569,0V20.532z
			 M56.392,129.732c-3.271,0.588-7.271,0.719-10.52,0.719c-9.829,0-19.023,0-19.023,0l0.001-49.58c0,0,9.985,0,17.021,0
			c5.372,0,11.451,0.604,14.934,1.516c11.941,3.133,18.801,11.695,18.801,23.033C77.606,117.16,71.289,127.048,56.392,129.732z
			 M131.011,93.082c2.303-11.07,10.486-19.038,22.546-19.038c12.073,0,20.104,7.139,22.185,19.038H131.011z"/>
<rect x="243.868" y="0.759" fill="#0067A4" width="25.686" height="151.215"/>
</svg>
