<?xml version="1.0" encoding="UTF-8"?>
<svg xmlns="http://www.w3.org/2000/svg" xmlns:xlink="http://www.w3.org/1999/xlink" width="823.68pt" height="1027.72pt" viewBox="0 0 823.68 1027.72" version="1.1">
<defs>
<clipPath id="clip1">
  <path d="M 680 762 L 823.679688 762 L 823.679688 924 L 680 924 Z M 680 762 "/>
</clipPath>
<clipPath id="clip2">
  <path d="M 672 945 L 743 945 L 743 1027.71875 L 672 1027.71875 Z M 672 945 "/>
</clipPath>
<clipPath id="clip3">
  <path d="M 745 947 L 823.679688 947 L 823.679688 1026 L 745 1026 Z M 745 947 "/>
</clipPath>
</defs>
<g id="surface1">
<path style=" stroke:none;fill-rule:nonzero;fill:rgb(73.298645%,13.299561%,15.299988%);fill-opacity:1;" d="M 161.25 395.449219 C 144.339844 312.019531 156.949219 195.511719 211.90625 175.304688 C 209.453125 146.652344 209.605469 112.511719 210.363281 84.144531 C 211.191406 53.738281 213.144531 31.121094 202.984375 32.53125 C 190.789063 34.246094 150.527344 115.660156 141.824219 219.992188 C 138.699219 257.671875 141.476563 295.414063 146.816406 329.753906 C 150.484375 351.890625 155.324219 373.835938 161.25 395.449219 "/>
<path style=" stroke:none;fill-rule:nonzero;fill:rgb(73.298645%,13.299561%,15.299988%);fill-opacity:1;" d="M 639.789063 395.449219 C 645.714844 373.835938 650.578125 351.890625 654.199219 329.753906 C 659.585938 295.414063 662.320313 257.671875 659.195313 219.992188 C 650.511719 115.660156 610.25 34.246094 598.007813 32.53125 C 587.875 31.121094 589.871094 53.738281 590.628906 84.144531 C 591.410156 112.511719 591.542969 146.652344 589.109375 175.304688 C 644.066406 195.511719 656.675781 312.019531 639.789063 395.449219 "/>
<path style=" stroke:none;fill-rule:nonzero;fill:rgb(90.19928%,20.399475%,17.298889%);fill-opacity:1;" d="M 290.726563 232.179688 C 322.699219 308.96875 341.90625 392.269531 346.8125 411 C 352.367188 403.253906 374.070313 383.394531 400.507813 383.394531 C 426.988281 383.394531 448.234375 403.253906 453.769531 411 C 458.71875 392.269531 477.929688 308.96875 509.878906 232.179688 C 508.402344 217.765625 500.695313 175.160156 497.351563 159.75 C 491.125 130.882813 461.976563 0.0117188 400.507813 0.0117188 C 339.039063 0.0117188 309.457031 130.882813 303.230469 159.75 C 299.90625 175.160156 292.203125 217.765625 290.726563 232.179688 "/>
<path style=" stroke:none;fill-rule:nonzero;fill:rgb(73.298645%,13.299561%,15.299988%);fill-opacity:1;" d="M 276.625 207.460938 C 287.085938 144.800781 297.484375 107.511719 310.460938 72.980469 C 285.980469 77.167969 257.851563 134.554688 249.039063 178.507813 C 262.84375 187.558594 275.929688 206.417969 276.625 207.460938 "/>
<path style=" stroke:none;fill-rule:nonzero;fill:rgb(73.298645%,13.299561%,15.299988%);fill-opacity:1;" d="M 551.722656 178.519531 C 542.933594 134.546875 514.78125 77.160156 490.300781 72.972656 C 503.277344 107.503906 513.632813 144.789063 524.136719 207.472656 C 524.832031 206.410156 537.878906 187.570313 551.722656 178.519531 "/>
<path style=" stroke:none;fill-rule:nonzero;fill:rgb(89.7995%,36.499023%,14.099121%);fill-opacity:1;" d="M 484.277344 654.996094 C 551.496094 650.199219 600.265625 621.09375 610.855469 611.804688 C 621.535156 602.429688 628.023438 594.441406 616.71875 592.878906 C 606.257813 591.402344 565.734375 606.988281 553.273438 610.808594 C 553.273438 610.808594 549.5625 611.933594 549.585938 610.765625 C 549.605469 609.636719 555.574219 607.570313 555.574219 607.570313 C 642.347656 575.929688 696.394531 512.617188 692.183594 497.792969 C 686.476563 484.921875 651.464844 520.929688 625.421875 536.945313 C 625.421875 536.945313 622.988281 538.464844 622.945313 537.425781 C 622.902344 536.925781 625.875 534.472656 625.875 534.472656 C 692.855469 481.46875 720.050781 380.804688 708.375 371.839844 C 702.125 369.757813 691.164063 394.152344 675.296875 423.757813 C 663.164063 446.375 651.464844 461.066406 651.464844 461.066406 C 651.464844 461.066406 650.402344 462.457031 649.816406 462.28125 C 649.359375 462.152344 650.140625 460.632813 650.140625 460.632813 C 698.238281 361.335938 703.644531 291.339844 705.292969 259.21875 C 708.980469 186.832031 695.980469 183.296875 690.75 206.886719 C 684.671875 234.234375 677.425781 269.417969 672.148438 304.078125 C 657.519531 399.753906 616.5 494.992188 584.050781 546.929688 C 579.210938 554.550781 575.109375 554.007813 574.132813 552.53125 C 573.242188 551.269531 573.808594 549.601563 576.78125 544.066406 C 670.175781 371.515625 630.5 197.773438 575.261719 195.796875 C 522.261719 193.863281 471.621094 402.683594 465.699219 425.582031 C 501.46875 486.636719 509.929688 571.21875 507.371094 592.554688 C 507.175781 594.3125 505.675781 595.765625 503.832031 595.808594 C 501.835938 595.875 500.164063 594.3125 500.097656 592.226563 C 500.097656 553.335938 470.515625 405.09375 400.996094 405.09375 C 331.5 405.09375 301.914063 553.335938 301.914063 592.226563 C 301.851563 594.3125 300.179688 595.875 298.160156 595.808594 C 296.335938 595.765625 294.859375 594.3125 294.644531 592.554688 C 292.085938 571.21875 300.570313 486.636719 336.339844 425.582031 C 330.414063 402.683594 279.757813 193.863281 226.777344 195.796875 C 171.535156 197.773438 131.839844 371.515625 225.234375 544.066406 C 228.230469 549.601563 228.773438 551.269531 227.882813 552.53125 C 226.925781 554.007813 222.824219 554.550781 217.964844 546.929688 C 185.535156 494.992188 144.492188 399.753906 129.886719 304.078125 C 124.570313 269.417969 117.34375 234.234375 111.265625 206.886719 C 106.035156 183.296875 93.03125 186.832031 96.742188 259.21875 C 98.351563 291.339844 103.796875 361.335938 151.875 460.632813 C 151.875 460.632813 152.675781 462.152344 152.199219 462.28125 C 151.632813 462.457031 150.570313 461.066406 150.570313 461.066406 C 150.570313 461.066406 138.871094 446.375 126.71875 423.757813 C 110.851563 394.152344 99.867188 369.757813 93.683594 371.839844 C 81.984375 380.804688 109.160156 481.46875 176.140625 534.472656 C 176.140625 534.472656 179.132813 536.925781 179.070313 537.425781 C 178.980469 538.464844 176.617188 536.945313 176.617188 536.945313 C 150.570313 520.929688 115.5625 484.921875 109.832031 497.792969 C 105.644531 512.617188 159.664063 575.929688 246.460938 607.570313 C 246.460938 607.570313 252.453125 609.636719 252.453125 610.765625 C 252.453125 611.933594 248.738281 610.808594 248.738281 610.808594 C 236.304688 606.988281 195.761719 591.402344 185.320313 592.878906 C 173.96875 594.441406 180.5 602.429688 191.179688 611.804688 C 201.769531 621.09375 250.519531 650.199219 317.71875 654.996094 C 318.28125 661.054688 341.589844 682.234375 400.910156 682.234375 C 460.226563 682.234375 483.777344 661.054688 484.277344 654.996094 "/>
<path style=" stroke:none;fill-rule:nonzero;fill:rgb(34.899902%,34.498596%,34.498596%);fill-opacity:1;" d="M 0.0625 762.96875 L 21.785156 762.96875 L 21.785156 902.941406 L 95.429688 902.941406 L 95.429688 923.34375 L 0.0625 923.34375 "/>
<path style=" stroke:none;fill-rule:nonzero;fill:rgb(34.899902%,34.498596%,34.498596%);fill-opacity:1;" d="M 117.617188 923.347656 L 139.363281 923.347656 L 139.363281 762.976563 L 117.617188 762.976563 Z M 117.617188 923.347656 "/>
<path style=" stroke:none;fill-rule:nonzero;fill:rgb(34.899902%,34.498596%,34.498596%);fill-opacity:1;" d="M 188.757813 904.3125 L 220.683594 904.3125 C 224.003906 904.3125 227.695313 903.988281 231.667969 903.316406 C 235.683594 902.621094 239.414063 901.253906 242.886719 899.234375 C 246.382813 897.171875 249.3125 894.414063 251.722656 890.964844 C 254.132813 887.46875 255.347656 882.890625 255.347656 877.136719 C 255.347656 867.609375 252.265625 860.492188 246.058594 855.738281 C 239.871094 850.984375 231.492188 848.597656 220.925781 848.597656 L 188.757813 848.597656 Z M 188.757813 829.5625 L 218.425781 829.5625 C 222.507813 829.5625 226.371094 829.148438 229.976563 828.324219 C 233.597656 827.5 236.789063 826.089844 239.503906 824.136719 C 242.214844 822.183594 244.363281 819.6875 245.949219 816.671875 C 247.53125 813.652344 248.335938 809.941406 248.335938 805.558594 C 248.335938 799.199219 246.296875 793.683594 242.214844 789.019531 C 238.15625 784.332031 231.710938 782.007813 222.964844 782.007813 L 188.757813 782.007813 Z M 167.011719 762.972656 L 222.746094 762.972656 C 229.671875 762.972656 236.136719 763.800781 242.105469 765.449219 C 248.074219 767.121094 253.199219 769.570313 257.515625 772.828125 C 261.8125 776.0625 265.222656 780.230469 267.695313 785.285156 C 270.191406 790.34375 271.429688 796.269531 271.429688 803.0625 C 271.429688 812.285156 268.867188 819.796875 263.726563 825.589844 C 258.601563 831.40625 251.960938 835.683594 243.800781 838.398438 L 243.800781 838.851563 C 248.640625 839.15625 253.175781 840.414063 257.386719 842.585938 C 261.621094 844.777344 265.285156 847.640625 268.367188 851.203125 C 271.472656 854.761719 273.925781 858.863281 275.75 863.53125 C 277.550781 868.238281 278.460938 873.296875 278.460938 878.703125 C 278.460938 885.972656 276.984375 892.355469 274.035156 897.867188 C 271.101563 903.378906 267.046875 908.023438 261.921875 911.777344 C 256.777344 915.578125 250.832031 918.441406 244.039063 920.398438 C 237.222656 922.371094 229.910156 923.347656 222.054688 923.347656 L 167.011719 923.347656 "/>
<path style=" stroke:none;fill-rule:nonzero;fill:rgb(34.899902%,34.498596%,34.498596%);fill-opacity:1;" d="M 300.65625 762.96875 L 404.183594 762.96875 L 404.183594 783.347656 L 322.402344 783.347656 L 322.402344 831.164063 L 398.519531 831.164063 L 398.519531 851.542969 L 322.402344 851.542969 L 322.402344 902.941406 L 408.242188 902.941406 L 408.242188 923.34375 L 300.65625 923.34375 "/>
<path style=" stroke:none;fill-rule:nonzero;fill:rgb(34.899902%,34.498596%,34.498596%);fill-opacity:1;" d="M 451.730469 833.644531 L 480.273438 833.644531 C 484.503906 833.644531 488.714844 833.316406 492.859375 832.621094 C 496.984375 831.953125 500.71875 830.691406 503.953125 828.890625 C 507.207031 827.066406 509.8125 824.464844 511.765625 821.054688 C 513.742188 817.667969 514.71875 813.261719 514.71875 807.816406 C 514.71875 802.390625 513.742188 797.960938 511.765625 794.554688 C 509.8125 791.167969 507.207031 788.5625 503.953125 786.742188 C 500.71875 784.941406 496.984375 783.703125 492.859375 783.027344 C 488.714844 782.335938 484.503906 781.988281 480.273438 781.988281 L 451.730469 781.988281 Z M 430.003906 762.972656 L 486.394531 762.972656 C 496.660156 762.972656 505.125 764.363281 511.765625 767.140625 C 518.40625 769.941406 523.660156 773.5 527.523438 777.820313 C 531.363281 782.09375 534.054688 786.957031 535.554688 792.296875 C 537.074219 797.679688 537.808594 802.824219 537.808594 807.816406 C 537.808594 812.960938 536.921875 817.910156 535.121094 822.640625 C 533.296875 827.414063 530.691406 831.710938 527.285156 835.574219 C 523.878906 839.414063 519.753906 842.671875 514.824219 845.300781 C 509.921875 847.945313 504.449219 849.574219 498.417969 850.183594 L 543.953125 923.347656 L 516.757813 923.347656 L 475.996094 852.679688 L 451.730469 852.679688 L 451.730469 923.347656 L 430.003906 923.347656 "/>
<path style=" stroke:none;fill-rule:nonzero;fill:rgb(34.899902%,34.498596%,34.498596%);fill-opacity:1;" d="M 597.847656 783.359375 L 546.210938 783.359375 L 546.210938 762.976563 L 671.230469 762.976563 L 671.230469 783.359375 L 619.59375 783.359375 L 619.59375 923.328125 L 597.847656 923.328125 "/>
<g clip-path="url(#clip1)" clip-rule="nonzero">
<path style=" stroke:none;fill-rule:nonzero;fill:rgb(34.899902%,34.498596%,34.498596%);fill-opacity:1;" d="M 741.230469 854.929688 L 680.523438 762.96875 L 708.371094 762.96875 L 752.125 833.421875 L 797.183594 762.96875 L 823.683594 762.96875 L 762.976563 854.929688 L 762.976563 923.34375 L 741.230469 923.34375 "/>
</g>
<path style=" stroke:none;fill-rule:nonzero;fill:rgb(89.7995%,36.499023%,14.099121%);fill-opacity:1;" d="M 0.0078125 947.128906 L 10.664063 947.128906 L 10.664063 1015.714844 L 46.738281 1015.714844 L 46.738281 1025.71875 L 0.0078125 1025.71875 "/>
<path style=" stroke:none;fill-rule:nonzero;fill:rgb(89.7995%,36.499023%,14.099121%);fill-opacity:1;" d="M 101.339844 996.96875 L 86.691406 960.898438 L 86.449219 960.898438 L 71.582031 996.96875 Z M 82.261719 947.136719 L 91.898438 947.136719 L 125.539063 1025.707031 L 113.105469 1025.707031 L 105.222656 1006.28125 L 67.828125 1006.28125 L 60.035156 1025.707031 L 47.621094 1025.707031 "/>
<path style=" stroke:none;fill-rule:nonzero;fill:rgb(89.7995%,36.499023%,14.099121%);fill-opacity:1;" d="M 141.976563 957.105469 L 116.667969 957.105469 L 116.667969 947.125 L 177.941406 947.125 L 177.941406 957.105469 L 152.632813 957.105469 L 152.632813 1025.714844 L 141.976563 1025.714844 "/>
<path style=" stroke:none;fill-rule:nonzero;fill:rgb(89.7995%,36.499023%,14.099121%);fill-opacity:1;" d="M 189.261719 1025.730469 L 199.921875 1025.730469 L 199.921875 947.136719 L 189.261719 947.136719 Z M 189.261719 1025.730469 "/>
<path style=" stroke:none;fill-rule:nonzero;fill:rgb(89.7995%,36.499023%,14.099121%);fill-opacity:1;" d="M 220.109375 947.128906 L 234.109375 947.128906 L 277.386719 1011.71875 L 277.625 1011.71875 L 277.625 947.128906 L 288.261719 947.128906 L 288.261719 1025.71875 L 274.71875 1025.71875 L 231.003906 961.105469 L 230.765625 961.105469 L 230.765625 1025.71875 L 220.109375 1025.71875 "/>
<path style=" stroke:none;fill-rule:nonzero;fill:rgb(89.7995%,36.499023%,14.099121%);fill-opacity:1;" d="M 383.042969 996.96875 L 368.390625 960.898438 L 368.175781 960.898438 L 353.308594 996.96875 Z M 363.964844 947.136719 L 373.601563 947.136719 L 407.242188 1025.707031 L 394.808594 1025.707031 L 386.925781 1006.28125 L 349.53125 1006.28125 L 341.738281 1025.707031 L 329.324219 1025.707031 "/>
<path style=" stroke:none;fill-rule:nonzero;fill:rgb(89.7995%,36.499023%,14.099121%);fill-opacity:1;" d="M 416.683594 947.128906 L 432.550781 947.128906 L 457.53125 1006.617188 L 457.988281 1006.617188 L 482.710938 947.128906 L 498.597656 947.128906 L 498.597656 1025.71875 L 487.941406 1025.71875 L 487.941406 961.105469 L 487.722656 961.105469 L 461.179688 1025.71875 L 454.082031 1025.71875 L 427.558594 961.105469 L 427.339844 961.105469 L 427.339844 1025.71875 L 416.683594 1025.71875 "/>
<path style=" stroke:none;fill-rule:nonzero;fill:rgb(89.7995%,36.499023%,14.099121%);fill-opacity:1;" d="M 515.480469 947.128906 L 566.203125 947.128906 L 566.203125 957.109375 L 526.136719 957.109375 L 526.136719 980.53125 L 563.425781 980.53125 L 563.425781 990.515625 L 526.136719 990.515625 L 526.136719 1015.714844 L 568.199219 1015.714844 L 568.199219 1025.71875 L 515.480469 1025.71875 "/>
<path style=" stroke:none;fill-rule:nonzero;fill:rgb(89.7995%,36.499023%,14.099121%);fill-opacity:1;" d="M 591.722656 981.753906 L 605.722656 981.753906 C 607.785156 981.753906 609.824219 981.601563 611.886719 981.253906 C 613.925781 980.929688 615.726563 980.300781 617.3125 979.410156 C 618.917969 978.542969 620.175781 977.28125 621.132813 975.589844 C 622.085938 973.917969 622.585938 971.769531 622.585938 969.101563 C 622.585938 966.429688 622.085938 964.28125 621.132813 962.589844 C 620.175781 960.941406 618.917969 959.660156 617.3125 958.789063 C 615.726563 957.878906 613.925781 957.273438 611.886719 956.945313 C 609.824219 956.621094 607.785156 956.46875 605.722656 956.46875 L 591.722656 956.46875 Z M 581.066406 947.113281 L 608.71875 947.113281 C 613.730469 947.113281 617.875 947.808594 621.132813 949.175781 C 624.410156 950.542969 626.96875 952.28125 628.859375 954.386719 C 630.746094 956.511719 632.050781 958.878906 632.785156 961.503906 C 633.546875 964.128906 633.914063 966.667969 633.914063 969.101563 C 633.914063 971.617188 633.460938 974.027344 632.570313 976.371094 C 631.703125 978.695313 630.421875 980.820313 628.773438 982.6875 C 627.078125 984.574219 625.039063 986.183594 622.652344 987.484375 C 620.242188 988.765625 617.550781 989.566406 614.597656 989.871094 L 636.890625 1025.707031 L 623.585938 1025.707031 L 603.59375 991.085938 L 591.722656 991.085938 L 591.722656 1025.707031 L 581.066406 1025.707031 "/>
<path style=" stroke:none;fill-rule:nonzero;fill:rgb(89.7995%,36.499023%,14.099121%);fill-opacity:1;" d="M 648.898438 1025.730469 L 659.554688 1025.730469 L 659.554688 947.136719 L 648.898438 947.136719 Z M 648.898438 1025.730469 "/>
<g clip-path="url(#clip2)" clip-rule="nonzero">
<path style=" stroke:none;fill-rule:nonzero;fill:rgb(89.7995%,36.499023%,14.099121%);fill-opacity:1;" d="M 732.257813 964.105469 C 730.019531 961.21875 727.21875 959.003906 723.8125 957.441406 C 720.425781 955.878906 716.890625 955.121094 713.265625 955.121094 C 708.835938 955.121094 704.820313 955.945313 701.242188 957.617188 C 697.617188 959.285156 694.578125 961.566406 692.015625 964.429688 C 689.453125 967.316406 687.480469 970.722656 686.070313 974.609375 C 684.65625 978.496094 683.964844 982.640625 683.964844 987.089844 C 683.964844 991.210938 684.636719 995.140625 685.960938 998.855469 C 687.285156 1002.542969 689.214844 1005.796875 691.734375 1008.621094 C 694.253906 1011.441406 697.3125 1013.632813 700.9375 1015.285156 C 704.5625 1016.910156 708.683594 1017.738281 713.265625 1017.738281 C 717.777344 1017.738281 721.753906 1016.78125 725.160156 1014.957031 C 728.546875 1013.089844 731.453125 1010.488281 733.796875 1007.167969 L 742.78125 1013.960938 C 742.195313 1014.761719 741.175781 1015.914063 739.679688 1017.453125 C 738.203125 1018.972656 736.25 1020.492188 733.796875 1022.011719 C 731.367188 1023.507813 728.414063 1024.832031 724.984375 1026.003906 C 721.535156 1027.132813 717.5625 1027.71875 713.050781 1027.71875 C 706.816406 1027.71875 701.242188 1026.527344 696.226563 1024.160156 C 691.234375 1021.792969 686.960938 1018.691406 683.464844 1014.828125 C 679.949219 1010.988281 677.277344 1006.644531 675.414063 1001.785156 C 673.566406 996.945313 672.636719 992.039063 672.636719 987.089844 C 672.636719 981.011719 673.65625 975.414063 675.652344 970.269531 C 677.648438 965.125 680.425781 960.675781 684.027344 956.964844 C 687.609375 953.207031 691.90625 950.300781 696.964844 948.238281 C 701.980469 946.15625 707.535156 945.132813 713.589844 945.132813 C 718.777344 945.132813 723.855469 946.113281 728.871094 948.109375 C 733.863281 950.125 737.941406 953.1875 741.132813 957.332031 "/>
</g>
<g clip-path="url(#clip3)" clip-rule="nonzero">
<path style=" stroke:none;fill-rule:nonzero;fill:rgb(89.7995%,36.499023%,14.099121%);fill-opacity:1;" d="M 799.394531 996.96875 L 784.742188 960.898438 L 784.527344 960.898438 L 769.660156 996.96875 Z M 780.316406 947.136719 L 789.953125 947.136719 L 823.59375 1025.707031 L 811.160156 1025.707031 L 803.277344 1006.28125 L 765.882813 1006.28125 L 758.089844 1025.707031 L 745.675781 1025.707031 "/>
</g>
</g>
</svg>
